<mxfile host="app.diagrams.net" modified="2021-09-11T10:03:56.043Z" agent="5.0 (Windows NT 10.0; Win64; x64) AppleWebKit/537.36 (KHTML, like Gecko) Chrome/93.0.4577.63 Safari/537.36" etag="l5gMGRXXsLGiPsPAchxT" version="15.1.4" type="github">
  <diagram id="ULd83uU3PNo8Rzl41vZv" name="Page-1">
    <mxGraphModel dx="1038" dy="579" grid="1" gridSize="10" guides="1" tooltips="1" connect="1" arrows="1" fold="1" page="1" pageScale="1" pageWidth="850" pageHeight="1100" math="0" shadow="0">
      <root>
        <mxCell id="0" />
        <mxCell id="1" parent="0" />
        <mxCell id="dCrYiU4T1Wo-uN5WMFpq-3" style="edgeStyle=orthogonalEdgeStyle;rounded=0;orthogonalLoop=1;jettySize=auto;html=1;entryX=0.006;entryY=0.688;entryDx=0;entryDy=0;entryPerimeter=0;" edge="1" parent="1" source="dCrYiU4T1Wo-uN5WMFpq-1" target="dCrYiU4T1Wo-uN5WMFpq-2">
          <mxGeometry relative="1" as="geometry">
            <Array as="points">
              <mxPoint x="388" y="325" />
            </Array>
          </mxGeometry>
        </mxCell>
        <mxCell id="dCrYiU4T1Wo-uN5WMFpq-5" style="edgeStyle=orthogonalEdgeStyle;rounded=0;orthogonalLoop=1;jettySize=auto;html=1;" edge="1" parent="1" source="dCrYiU4T1Wo-uN5WMFpq-1" target="dCrYiU4T1Wo-uN5WMFpq-4">
          <mxGeometry relative="1" as="geometry" />
        </mxCell>
        <mxCell id="dCrYiU4T1Wo-uN5WMFpq-1" value="" style="sketch=0;aspect=fixed;html=1;points=[];align=center;image;fontSize=12;image=img/lib/mscae/Cache_Redis_Product.svg;" vertex="1" parent="1">
          <mxGeometry x="140" y="280" width="107.14" height="90" as="geometry" />
        </mxCell>
        <mxCell id="dCrYiU4T1Wo-uN5WMFpq-2" value="" style="sketch=0;aspect=fixed;html=1;points=[];align=center;image;fontSize=12;image=img/lib/mscae/Azure_Database_for_MySQL_servers.svg;" vertex="1" parent="1">
          <mxGeometry x="387" y="260" width="98.8" height="130" as="geometry" />
        </mxCell>
        <mxCell id="dCrYiU4T1Wo-uN5WMFpq-4" value="" style="sketch=0;points=[[0,0,0],[0.25,0,0],[0.5,0,0],[0.75,0,0],[1,0,0],[0,1,0],[0.25,1,0],[0.5,1,0],[0.75,1,0],[1,1,0],[0,0.25,0],[0,0.5,0],[0,0.75,0],[1,0.25,0],[1,0.5,0],[1,0.75,0]];outlineConnect=0;fontColor=#232F3E;gradientColor=#945DF2;gradientDirection=north;fillColor=#5A30B5;strokeColor=#ffffff;dashed=0;verticalLabelPosition=bottom;verticalAlign=top;align=center;html=1;fontSize=12;fontStyle=0;aspect=fixed;shape=mxgraph.aws4.resourceIcon;resIcon=mxgraph.aws4.managed_streaming_for_kafka;" vertex="1" parent="1">
          <mxGeometry x="169.14" y="450" width="78" height="78" as="geometry" />
        </mxCell>
      </root>
    </mxGraphModel>
  </diagram>
</mxfile>
